<?xml version="1.0" encoding="UTF-8" standalone="no"?>
<svg width="111px" height="48px" viewBox="0 0 111 48" version="1.1" xmlns="http://www.w3.org/2000/svg" xmlns:xlink="http://www.w3.org/1999/xlink" xmlns:sketch="http://www.bohemiancoding.com/sketch/ns">
    <!-- Generator: Sketch 3.3.3 (12072) - http://www.bohemiancoding.com/sketch -->
    <title>dude_arm</title>
    <desc>Created with Sketch.</desc>
    <defs></defs>
    <g id="Page-1" stroke="none" stroke-width="1" fill="none" fill-rule="evenodd" sketch:type="MSPage">
        <g id="Desktop-HD" sketch:type="MSArtboardGroup" transform="translate(-980.000000, -526.000000)" stroke-linecap="round" stroke-width="2" stroke="#FFFFFF">
            <g id="dude_arm" sketch:type="MSLayerGroup" transform="translate(980.000000, 527.000000)">
                <g id="Group" sketch:type="MSShapeGroup">
                    <path d="M46.5042391,1.13313181 C53.2921285,-0.175911586 64.6913421,18.5429182 69.7929912,19.8145858 C96.2629809,26.4126541 95.2437759,24.8243862 109.220698,15.0854756" id="Path-51"></path>
                    <path d="M71.0799548,24.6435654 C80.9523542,29.3690681 92.7627705,34.5333784 103.41467,27.6239819" id="Path-52"></path>
                    <path d="M72.4981612,25.1311631 C66.4272673,28.6529162 66.2103503,34.6497325 62.4218436,36.0756753 C53.9269325,39.2730453 48.6474132,25.4428159 55.1995685,22.6246368 C62.5077113,19.4812962 62.8190653,26.4228239 58.4375453,28.6128849" id="Path-53"></path>
                    <path d="M54.3396339,22.9085793 C43.4715466,6.18468464 46.0678598,48.1087086 54.5962431,32.9542668" id="Path-54"></path>
                    <path d="M37.958754,31.8583151 C32.5079779,34.9225406 28.2460535,48.5286524 38.9753965,45.1820691 C42.3697679,44.1233327 43.5265512,34.544249 46.4562396,31.6154954" id="Path-55"></path>
                    <path d="M1.33514729,16.3328641 C4.49369608,9.65834219 0.935124811,15.3358162 15.8815576,13.9692881 C23.6830321,13.256012 31.3891097,11.7329966 39.1428858,10.6148509" id="Path-56"></path>
                    <path d="M12.2988234,33.7395145 C35.215223,32.7075736 23.422157,34.1024619 47.6266594,29.1416053" id="Path-58"></path>
                    <path d="M13.1039102,29.0397776 C37.0902176,28.5644078 25.7061194,29.7114948 47.2995317,26.0593612" id="Path-60"></path>
                    <path d="M61.0193079,22.2907597 C64.0423011,21.8872024 67.0652944,21.4836451 70.0882876,21.0800879" id="Path-61"></path>
                    <path d="M47.2103964,0.634437073 C29.8571543,3.27410392 39.0406065,15.5655426 49.8470067,6.72255453" id="Path-50"></path>
                    <path d="M0.976677981,17.6938296 C4.49738202,23.0423912 8.01808606,28.3909528 11.5387901,33.7395145" id="Path-57"></path>
                    <path d="M61.1446742,26.5748636 C64.4374989,26.1403011 67.7303235,25.7057386 71.0231481,25.2711761" id="Path-63"></path>
                    <path d="M3.81504973,14.1708224 C7.57524525,20.5750374 11.919322,23.0463804 12.886478,29.8601106" id="Path-59"></path>
                </g>
            </g>
        </g>
    </g>
</svg>