<?xml version="1.0" encoding="UTF-8" standalone="no"?>
<svg width="442px" height="342px" viewBox="0 0 442 342" version="1.1" xmlns="http://www.w3.org/2000/svg" xmlns:xlink="http://www.w3.org/1999/xlink" xmlns:sketch="http://www.bohemiancoding.com/sketch/ns">
    <!-- Generator: Sketch 3.3.3 (12072) - http://www.bohemiancoding.com/sketch -->
    <title>dude</title>
    <desc>Created with Sketch.</desc>
    <defs></defs>
    <g id="Page-1" stroke="none" stroke-width="1" fill="none" fill-rule="evenodd" sketch:type="MSPage">
        <g id="Desktop-HD" sketch:type="MSArtboardGroup" transform="translate(-847.000000, -341.000000)" stroke-linecap="round" stroke="#FFFFFF">
            <g id="dude" sketch:type="MSLayerGroup" transform="translate(848.000000, 343.000000)">
                <path d="M257.733792,172.067211 C257.733792,172.067211 234.014093,138.524797 231.275623,132.062659 C228.537152,125.600521 228.004345,87.3035404 231.777088,77.0287406 C235.549831,66.7539409 233.124777,48.2154373 255.281313,21.7245872 C277.43785,-4.76626292 326.755784,1.60775519 326.755784,1.60775519 C326.755784,1.60775519 348.873144,4.78987014 368.751541,26.9256293 C388.629939,49.0613884 400.053942,88.0339554 400.053943,91.2728598 C400.053944,94.5117641 401.186158,107.563323 401.186158,107.563323" id="Path-2" stroke-width="5" sketch:type="MSShapeGroup"></path>
                <path d="M243.185423,134.285243 C282.890763,135.478158 312.463445,139.521724 353.878003,137.263701 C362.911741,136.77116 371.734714,134.317803 380.708354,133.167097 C382.399998,132.950175 384.219968,132.590179 385.824866,133.167097 C395.054989,136.485081 383.12132,135.902736 390.682811,135.902736" id="Path-5" stroke-width="4" sketch:type="MSShapeGroup"></path>
                <path d="M259.610369,135.889028 C259.610369,151.953449 273.529981,152.376385 271.304696,135.475843" id="Path-7" stroke-width="2" sketch:type="MSShapeGroup"></path>
                <path d="M310.332797,137.954954 C310.332797,157.199014 321.058433,152.482321 325.909562,137.913832" id="Path-9" stroke-width="2" sketch:type="MSShapeGroup"></path>
                <path d="M313.727482,81.7480597 C309.250859,82.2447958 304.248759,81.0766648 300.297615,83.238268 C297.709173,84.6543602 297.182924,88.3489156 296.442601,91.2043219 C292.329512,107.068386 313.167733,107.007554 317.25145,94.9562785 C318.248605,92.0136216 317.499571,88.747404 317.623632,85.6429667 L313.727482,81.7480597 Z" id="Path-10" stroke-width="2" sketch:type="MSShapeGroup"></path>
                <path d="M296.254551,84.7695989 C295.382767,75.3261843 297.919193,68.5306004 289.919635,63.0333159 C277.771583,54.6851925 255.880107,59.8200831 251.535995,74.5829193 C243.353457,102.390085 289.744062,118.665905 296.138979,89.8433565 L296.254551,84.7695989 Z" id="Path-11" stroke-width="2" sketch:type="MSShapeGroup"></path>
                <path d="M305.827445,63.1351436 C310.026234,67.3325933 316.004141,68.002383 318.769558,73.1064186" id="Path-12" stroke-width="2" sketch:type="MSShapeGroup"></path>
                <path d="M281.992174,53.1188294 C266.472883,53.987084 272.663264,51.8777516 262.728856,56.8433708" id="Path-13" stroke-width="2" sketch:type="MSShapeGroup"></path>
                <path d="M252.668209,102.652098 C252.668209,113.742424 278.653143,111.560749 281.504421,110.976507 C291.520976,108.924059 292.419976,102.014475 295.563078,94.5293858" id="Path-14" stroke-width="2" sketch:type="MSShapeGroup"></path>
                <path d="M296.064543,94.644921 C295.385259,112.557994 302.987111,109.725098 319.942909,108.56985" id="Path-15" stroke-width="2" sketch:type="MSShapeGroup"></path>
                <path d="M364.044428,42.9908964 C357.311004,49.1693408 358.025366,59.2795765 361.435241,67.4628179" id="Path-16" stroke-width="2" sketch:type="MSShapeGroup"></path>
                <path d="M360.820163,50.1560369 C367.836155,50.1560369 361.175504,57.3424106 359.343191,58.8818817" id="Path-17" stroke-width="2" sketch:type="MSShapeGroup"></path>
                <path d="M376.011034,83.326388 C361.644154,83.326388 373.836288,96.7437114 375.997323,100.131864" id="Path-18" stroke-width="2" sketch:type="MSShapeGroup"></path>
                <path d="M371.15309,84.0842206 C374.419942,87.8374646 374.542625,88.4630505 371.395987,92.3068019" id="Path-19" stroke-width="2" sketch:type="MSShapeGroup"></path>
                <path d="M392.136277,96.1488368 C418.174591,128.493852 403.199728,128.175749 396.134287,159.060689" id="Path-20" stroke-width="5" sketch:type="MSShapeGroup"></path>
                <path d="M399.975589,147.381843 C404.15926,157.247732 406.38079,159.953789 403.458422,173.731701 C398.754675,195.908178 381.82599,191.808798 392.651454,206.528032" id="Path-21" stroke-width="4" sketch:type="MSShapeGroup"></path>
                <path d="M254.566334,168.587448 C245.152114,171.456485 256.311255,176.561121 255.943404,179.202978 C255.660642,181.233739 251.776732,180.687919 250.711319,182.439922 L248.476273,188.529998 C246.418652,191.913624 242.853036,194.344582 241.265751,197.972552 C236.290636,209.343897 233.939049,221.745586 228.968099,233.118751 C215.901187,263.014877 216.936481,228.200069 218.648884,277.490142 C218.911397,285.046367 230.214859,295.692019 237.410737,297.865459 C260.022848,304.695213 282.505009,309.290911 305.606095,313.139604 C315.646476,314.812354 333.915166,322.979254 344.403052,315.618715 C344.988813,315.20762 343.23819,314.787123 342.655759,314.371327" id="Path-20" stroke-width="5" sketch:type="MSShapeGroup"></path>
                <path d="M298.278042,94.5235111 C300.823854,97.0919203 299.926164,95.3394713 298.765795,100.409932" id="Path-22" stroke-width="2" sketch:type="MSShapeGroup"></path>
                <path d="M393.058895,169.153374 L393.805216,170.528047 L393.058895,169.153374 Z" id="Path-24" stroke-width="2" sketch:type="MSShapeGroup"></path>
                <path d="M354.920111,193.253233 C344.813291,193.253233 348.04048,205.450991 351.065096,212.508447" id="Path-25" stroke-width="2" sketch:type="MSShapeGroup"></path>
                <path d="M349.946594,197.33613 C356.620272,198.765747 353.317648,202.026809 349.445129,205.172941" id="Path-26" stroke-width="2" sketch:type="MSShapeGroup"></path>
                <path d="M244.730954,226.278676 C255.184943,235.316907 252.269558,240.186961 239.886722,241.924883" id="Path-27" stroke-width="2" sketch:type="MSShapeGroup"></path>
                <path d="M247.839647,230.118752 C239.386916,231.485828 243.517528,235.326898 247.69861,240.55021" id="Path-28" stroke-width="2" sketch:type="MSShapeGroup"></path>
                <path d="M324.593215,260.782577 C314.66618,267.728763 324.399971,275.563759 332.418816,278.420298" id="Path-29" stroke-width="2" sketch:type="MSShapeGroup"></path>
                <path d="M321.970317,265.611557 C329.735705,267.357371 326.648773,265.056805 328.434518,275.181396" id="Path-30" stroke-width="2" sketch:type="MSShapeGroup"></path>
                <path d="M396.48688,194.214721 C417.533455,212.893339 400.777742,251.43521 391.270466,272.858943" id="Path-31" stroke-width="4" sketch:type="MSShapeGroup"></path>
                <path d="M403.554406,244.290417 C415.356097,258.137208 411.18624,265.765713 399.58382,281.584787" id="Path-32" stroke-width="2" sketch:type="MSShapeGroup"></path>
                <path d="M406.549485,244.458824 C410.117387,238.479784 417.000897,229.516782 421.842217,241.106345 C422.416648,242.481467 422.628727,246.842876 421.842217,245.57697 L416.739416,248.314567 C411.482102,239.852801 426.844795,235.969925 431.659967,237.123318 C435.013111,237.926508 434.484468,245.296478 431.285827,246.207518 C429.024608,246.851561 425.575123,243.173213 428.290747,240.863526 C431.546131,238.094764 435.983799,237.137679 439.830325,235.274755" id="Path-33" stroke-width="2" sketch:type="MSShapeGroup"></path>
                <path d="M328.649991,293.265592 C336.626473,281.959576 351.385574,282.77644 363.83679,280.842621 C373.549022,279.334197 386.861631,267.417673 392.788573,275.255808 L395.783653,276.129176 C402.310316,284.760417 413.263172,300.729601 406.590621,313.139604 C404.038032,317.887059 396.650892,317.339721 391.554499,319.098479 C385.110001,321.322466 359.306066,329.580927 351.897607,328.799519 C349.530416,328.549839 349.073165,324.911841 348.171877,322.709443 C344.431582,313.569609 336.870337,306.466963 332.506964,297.091961 L328.649991,293.265592 Z" id="Path-34" stroke-width="2" sketch:type="MSShapeGroup"></path>
                <path d="M365.887704,280.658548 C378.391617,293.386685 381.004022,304.622496 385.638776,322.024065" id="Path-35" stroke-width="2" sketch:type="MSShapeGroup"></path>
                <path d="M368.12471,328.227717 C370.279443,329.885027 372.273366,331.775475 374.58891,333.199647 L377.325422,338.430063 C380.258314,340.233935 382.819386,334.739497 382.555548,333.315183 C381.925485,329.913831 379.900655,326.926151 378.573209,323.731636" id="Path-36" stroke-width="2" sketch:type="MSShapeGroup"></path>
                <path d="M374.729947,332.155914 C377.343052,331.411136 379.956156,330.666359 382.56926,329.921581" id="Path-37" stroke-width="2" sketch:type="MSShapeGroup"></path>
                <path d="M398.349745,317.383075 C401.574563,318.073887 406.80997,326.447656 409.0431,325.206178 C415.770767,321.466023 408.529807,317.139993 406.549485,315.107619" id="Path-38" stroke-width="2" sketch:type="MSShapeGroup"></path>
                <path d="M408.412351,318.561925 C404.40542,319.388278 406.446827,318.350815 403.554406,323.41832" id="Path-39" stroke-width="2" sketch:type="MSShapeGroup"></path>
                <path d="M222.611635,240.411176 C203.401087,243.441985 202.776798,259.213875 194.404214,274.33936" id="Path-40" stroke-width="2" sketch:type="MSShapeGroup"></path>
                <path d="M195.034963,273.851762 C199.447981,294.944049 205.149511,294.31754 217.894727,302.667024 C225.294038,307.514365 231.189855,314.488335 238.764301,319.057356 C274.946123,340.882778 323.120546,338.729064 362.52632,329.359571" id="Path-41" stroke-width="2" sketch:type="MSShapeGroup"></path>
                <path d="M195.936034,278.823692 C178.65511,296.7897 189.576551,289.659622 199.561863,287.175516" id="Path-42" stroke-width="2" sketch:type="MSShapeGroup"></path>
                <path d="M191.34841,283.938572 L194.960527,289.16703" id="Path-43" stroke-width="2" sketch:type="MSShapeGroup"></path>
                <path d="M223.024952,285.930086 C212.801109,291.855738 221.617399,291.447989 228.599835,296.502535 C236.380987,302.135267 242.710556,309.631687 250.587912,315.129159 C278.445942,334.570805 318.321769,330.12382 349.9701,324.816492" id="Path-44" stroke-width="2" sketch:type="MSShapeGroup"></path>
                <path d="M219.542119,281.974474 C211.347824,285.442285 214.624646,282.954949 209.352188,288.937917" id="Path-45" stroke-width="2" sketch:type="MSShapeGroup"></path>
                <path d="M217.679254,262.846545 C210.94196,265.662521 213.343545,263.435155 209.967267,268.936621" id="Path-46" stroke-width="2" sketch:type="MSShapeGroup"></path>
                <path id="Path-62" stroke-width="2" sketch:type="MSShapeGroup" d="M201.962921,206.015466 L202.097367,211.295327"></path>
                <path id="Path-64" stroke-width="2" sketch:type="MSShapeGroup" d="M146.129367,200.110406 L144.886478,199.965534 L146.129367,200.110406 Z"></path>
                <path d="M354.419625,289.190528 C353.466645,292.027342 352.513665,294.864155 351.560685,297.700968" id="Path-67" stroke-width="2" sketch:type="MSShapeGroup"></path>
                <path d="M340.008375,294.655931 C343.137405,299.458167 340.75367,297.301898 348.707622,298.818135" id="Path-68" stroke-width="2" sketch:type="MSShapeGroup"></path>
                <path d="M353.616497,297.887 C343.527739,300.686481 348.986105,304.716678 355.487197,302.557363 L353.616497,297.887 Z" id="Path-69" stroke-width="2" sketch:type="MSShapeGroup"></path>
                <path d="M353.108176,303.834125 C355.722818,307.807508 353.720157,306.197701 360.446023,306.197701" id="Path-70" stroke-width="2" sketch:type="MSShapeGroup"></path>
                <path d="M15.4976663,139.994444 C20.3720804,159.277507 18.2459146,147.248343 18.6004826,176.509441" id="Path-71" stroke-width="2" sketch:type="MSShapeGroup"></path>
                <path d="M15.9276336,139.312982 C42.2886115,137.964514 28.125418,139.305426 58.3523784,134.656327" id="Path-72" stroke-width="2" sketch:type="MSShapeGroup"></path>
                <path d="M58.7245597,134.219643 C78.0642728,136.06331 97.4039858,137.906978 116.743699,139.750645" id="Path-73" stroke-width="2" sketch:type="MSShapeGroup"></path>
                <path d="M67.8616094,151.613565 C84.4256339,147.764023 100.989658,143.914482 117.553683,140.06494" id="Path-74" stroke-width="2" sketch:type="MSShapeGroup"></path>
                <path d="M16.7444735,139.506847 C34.1991212,143.317876 51.6537689,147.128906 69.1084166,150.939936" id="Path-75" stroke-width="2" sketch:type="MSShapeGroup"></path>
                <path d="M68.7998979,150.796985 C70.874073,229.922763 70.0638534,179.238656 68.7998979,302.868721" id="Path-76" stroke-width="2" sketch:type="MSShapeGroup"></path>
                <path d="M117.504712,139.368792 C104.580335,169.272345 106.923206,261.883813 113.21973,287.764941" id="Path-77" stroke-width="2" sketch:type="MSShapeGroup"></path>
                <path id="Path-78" stroke-width="2" sketch:type="MSShapeGroup" d="M113.965072,284.709133 L113.591911,302.468264"></path>
                <path d="M68.9379967,301.286476 C76.8828552,310.335089 117.074744,309.50539 117.074744,299.545615" id="Path-79" stroke-width="2" sketch:type="MSShapeGroup"></path>
                <path d="M114.5302,151.83876 C141.320391,187.88997 129.026066,247.444959 113.470463,288.257435" id="Path-80" stroke-width="2" sketch:type="MSShapeGroup"></path>
                <path d="M0.169675333,184.467663 C17.0331545,180.114232 9.06486511,182.917723 24.1489215,176.271517" id="Path-81" stroke-width="2" sketch:type="MSShapeGroup"></path>
                <path d="M24.0264935,175.957222 C41.2720167,177.615671 31.8833073,176.07723 52.0399885,181.422625" id="Path-82" stroke-width="2" sketch:type="MSShapeGroup"></path>
                <path d="M52.0399885,181.422625 L21.4692165,194.468311" id="Path-83" stroke-width="2" sketch:type="MSShapeGroup"></path>
                <path d="M1.21667996,183.78718 C14.6649392,186.810575 7.41033293,184.004751 21.9628464,194.468311" id="Path-84" stroke-width="2" sketch:type="MSShapeGroup"></path>
                <path d="M22.2713651,194.526079 C29.7001272,214.948656 24.9057722,199.835917 29.9108749,241.472533" id="Path-85" stroke-width="2" sketch:type="MSShapeGroup"></path>
                <path d="M30.2830562,240.971228 C45.0057008,240.971228 50.6057612,247.690323 57.795086,260.098178" id="Path-86" stroke-width="2" sketch:type="MSShapeGroup"></path>
                <path d="M29.7110724,240.354388 C39.3379229,250.049207 47.7990323,250.110919 57.9743206,258.615803" id="Path-87" stroke-width="2" sketch:type="MSShapeGroup"></path>
                <path d="M51.761832,182.124648 C64.5544713,199.686177 62.3914653,240.913953 57.6599254,259.309993" id="Path-88" stroke-width="2" sketch:type="MSShapeGroup"></path>
                <path d="M0.841560432,184.609634 C1.47347814,215.411048 -0.0330440498,202.894439 3.07758621,222.364187" id="Path-89" stroke-width="2" sketch:type="MSShapeGroup"></path>
                <path d="M3.82292813,221.792385 C12.7905374,228.581547 21.7581467,235.370708 30.725756,242.15987" id="Path-90" stroke-width="2" sketch:type="MSShapeGroup"></path>
                <path d="M22.6562788,235.975799 C29.4470795,252.180986 26.060613,241.37292 27.314421,269.632769" id="Path-91" stroke-width="2" sketch:type="MSShapeGroup"></path>
                <path d="M27.0059023,270.557051 C34.942148,276.239754 60.9716916,300.4002 69.1936265,302.480013" id="Path-92" stroke-width="2" sketch:type="MSShapeGroup"></path>
                <path d="M77.3346016,275.856983 C86.3831767,276.064881 95.4317517,276.272779 104.480327,276.480677" id="Path-93" stroke-width="2" sketch:type="MSShapeGroup"></path>
                <path d="M75.0084688,290.155932 C86.708672,289.907564 98.4088752,289.659196 110.109078,289.410828" id="Path-97" stroke-width="2" sketch:type="MSShapeGroup"></path>
                <path d="M74.6431435,296.432039 C85.9897745,295.872967 97.3364056,295.313894 108.683037,294.754821" id="Path-98" stroke-width="2" sketch:type="MSShapeGroup"></path>
                <path d="M76.449202,281.594579 C86.5153989,281.780936 96.5815959,281.967294 106.647793,282.153651" id="Path-100" stroke-width="2" sketch:type="MSShapeGroup"></path>
                <path d="M90.3149124,273.026371 C72.0392023,272.049097 90.2270769,271.480982 93.0455475,268.305093 C94.9703996,266.136146 81.9717313,269.784008 84.3463005,268.119062 L82.417814,265.633097 C84.3187692,264.300229 87.2551345,265.714345 89.3119819,264.63734 C90.2183709,264.162738 87.1235151,264.292843 86.4530423,263.520174 C85.9772622,262.971873 85.8364105,261.725857 86.4530423,261.342629" id="Path-101" stroke-width="2" sketch:type="MSShapeGroup"></path>
                <path d="M300.080183,96.9614996 L297.071391,95.9588891 L300.080183,96.9614996 Z" id="Path-103" stroke-width="2" sketch:type="MSShapeGroup"></path>
                <path id="Path-1" stroke-width="2" sketch:type="MSShapeGroup" d=""></path>
                <path id="Path-6" stroke-width="2" sketch:type="MSShapeGroup" d="M260.744057,135.746078 L260.744057,143.353777"></path>
                <path id="Path-8" stroke-width="2" sketch:type="MSShapeGroup" d="M310.706452,139.55874 L310.706452,146.279363"></path>
                <path id="Path-23" stroke-width="2" sketch:type="MSShapeGroup" d="M395.064756,163.094202 L393.317463,163.094202 L395.064756,163.094202 Z"></path>
                <path id="Path-65" stroke-width="2" sketch:type="MSShapeGroup" d="M202.009938,205.848038 L202.009938,206.252412 L202.009938,205.848038 Z"></path>
                <path id="Path-66" stroke-width="2" sketch:type="MSShapeGroup" d="M201.544222,205.751106 L201.544222,206.808058 L201.544222,205.751106 Z"></path>
                <path id="Path-94" stroke-width="2" sketch:type="MSShapeGroup" d="M74.8409872,282.055312 L107.139464,282.055312"></path>
                <path id="Path-95" stroke-width="2" sketch:type="MSShapeGroup" d="M76.0809385,281.869281 L107.261892,281.869281"></path>
                <path id="Path-96" stroke-width="2" sketch:type="MSShapeGroup" d="M74.6637114,286.640493 L108.703604,286.640493"></path>
                <path id="Path-99" stroke-width="2" sketch:type="MSShapeGroup" d="M76.9438113,300.451844 L108.561588,300.451844"></path>
            </g>
        </g>
    </g>
</svg>