<?xml version="1.0" encoding="UTF-8" standalone="no"?>
<svg width="105px" height="290px" viewBox="0 0 105 290" version="1.1" xmlns="http://www.w3.org/2000/svg" xmlns:xlink="http://www.w3.org/1999/xlink" xmlns:sketch="http://www.bohemiancoding.com/sketch/ns">
    <!-- Generator: Sketch 3.3.3 (12072) - http://www.bohemiancoding.com/sketch -->
    <title>Path 548</title>
    <desc>Created with Sketch.</desc>
    <defs></defs>
    <g id="Page-1" stroke="none" stroke-width="1" fill="none" fill-rule="evenodd" sketch:type="MSPage">
        <g id="Desktop-HD" sketch:type="MSArtboardGroup" transform="translate(-1076.000000, -345.000000)" fill="#C46CD6">
            <path d="M1144.42187,345.597656 C1111.07715,347.410156 1087.32129,381.47461 1081.4043,416.699217 C1080.22314,423.730765 1076.86029,462.3766 1079.59863,471.80371 C1083.55664,485.429694 1095.96584,492.022396 1105.5752,509.519531 C1110.98458,519.369184 1101.39981,510.574993 1100.50391,514.664063 C1099.5899,518.835765 1102.40162,519.460978 1102.36133,523.731445 C1102.28992,531.299559 1094.63753,533.136448 1091.77539,539.614258 C1086.06734,552.533154 1074.37706,577.940932 1077.19141,592.220703 C1081.72416,615.219559 1088.69629,638.255859 1123.87207,634.483398 C1124.67539,634.397246 1115.58289,609.266788 1116.39551,602.9375 C1116.76206,600.082527 1120.68002,592.26159 1121.93652,590.285156 C1126.22656,583.537109 1146.01312,585.167975 1141.22477,585.167975 L1177.2666,530.78028 C1181.53125,523.225592 1179.8804,494.547858 1179.04004,494.547858 C1178.19968,494.547858 1168.85985,496.899815 1166.09082,490.428711 C1162.94415,483.075092 1157.74609,473.351569 1163.50488,466.362303 C1191.87412,431.931435 1155.10708,396.830957 1157.74609,362.665039 C1158.19252,356.885349 1172.00386,345.597656 1172.49512,345.597656 C1172.98637,345.597656 1144.42187,345.597656 1144.42187,345.597656 Z" id="Path-548" sketch:type="MSShapeGroup"></path>
        </g>
    </g>
</svg>