<?xml version="1.0" encoding="UTF-8" standalone="no"?>
<svg width="34px" height="76px" viewBox="0 0 34 76" version="1.1" xmlns="http://www.w3.org/2000/svg" xmlns:xlink="http://www.w3.org/1999/xlink" xmlns:sketch="http://www.bohemiancoding.com/sketch/ns">
    <!-- Generator: Sketch 3.3.3 (12072) - http://www.bohemiancoding.com/sketch -->
    <title>dude_arm_2</title>
    <desc>Created with Sketch.</desc>
    <defs></defs>
    <g id="Page-1" stroke="none" stroke-width="1" fill="none" fill-rule="evenodd" sketch:type="MSPage">
        <g id="Desktop-HD" sketch:type="MSArtboardGroup" transform="translate(-1202.000000, -541.000000)" stroke-linecap="round" stroke="#FFFFFF" stroke-width="2">
            <g id="dude_arm_2" sketch:type="MSLayerGroup" transform="translate(1203.000000, 542.000000)">
                <path d="M10.8808098,4.1017924 C10.8808098,15.239516 12.336863,26.4727647 10.8808098,37.5149632 C10.5085129,40.3383327 -10.1899635,77.9216196 7.913154,72.6885772 C9.04018711,72.3627873 9.65130574,71.1128598 10.5203816,70.3250012" id="Path-47" sketch:type="MSShapeGroup"></path>
                <path d="M6.66536739,62.9757877 C12.4974928,65.8897129 12.3899093,70.8281336 18.2460808,67.3308772" id="Path-48" sketch:type="MSShapeGroup"></path>
                <path d="M15.3802852,61.254509 C22.7236909,70.3579819 26.9346818,67.2885673 30.68477,57.1579051 C31.2218018,55.7071425 31.3066705,53.6081842 30.1833047,52.5443301 C26.6875937,49.2338084 19.2030832,58.2905137 19.0923035,58.2740926 C10.5319651,57.005177 16.657532,44.9508779 16.8415863,43.360261 C18.4853283,29.1548706 18.3329231,14.7989157 19.0785915,0.518243042" id="Path-49" sketch:type="MSShapeGroup"></path>
            </g>
        </g>
    </g>
</svg>