<?xml version="1.0" encoding="UTF-8" standalone="no"?>
<svg width="17px" height="124px" viewBox="0 0 17 124" version="1.1" xmlns="http://www.w3.org/2000/svg" xmlns:xlink="http://www.w3.org/1999/xlink" xmlns:sketch="http://www.bohemiancoding.com/sketch/ns">
    <!-- Generator: Sketch 3.3.3 (12072) - http://www.bohemiancoding.com/sketch -->
    <title>Path 547</title>
    <desc>Created with Sketch.</desc>
    <defs></defs>
    <g id="Page-1" stroke="none" stroke-width="1" fill="none" fill-rule="evenodd" sketch:type="MSPage">
        <g id="Desktop-HD" sketch:type="MSArtboardGroup" transform="translate(-961.000000, -497.000000)" fill="#C46CD6">
            <path d="M964.013672,497.035156 C964.013672,497.035156 963.713259,503.339434 963.505708,507.865599 C963.396172,510.254293 963.3125,512.147743 963.3125,512.35791 C963.3125,512.966309 962.577861,521.194782 962.375,527.966797 C961.664287,551.692154 961.689242,575.590243 962.746094,599.173828 C963.719727,620.900391 964.704696,620.900223 964.864746,620.900391 C965.024796,620.900558 965.939155,616.496991 968.810547,607.736328 C969.818256,604.66179 970.81556,601.48238 971.544434,598.330078 C972.596788,593.778763 974.092714,589.477315 974.761231,584.854004 C976.66304,571.701519 977.369599,558.600044 977.873047,545.320312 C978.113023,538.990349 977.354527,532.981637 976.079102,526.776855 C975.499208,523.955746 973.976913,518.340734 973.023438,515.623047 C971.764968,512.036033 972.185314,513.494062 970.951661,509.898438 C970.608641,508.898668 968.393392,504.050618 967.645996,503.303223 L964.013672,497.035156 Z" id="Path-547" sketch:type="MSShapeGroup"></path>
        </g>
    </g>
</svg>